<svg width="28" height="32" viewBox="0 0 28 32" fill="none" xmlns="http://www.w3.org/2000/svg">
<path d="M14.4308 3C4.95385 3 0 7.48 0 12.44C0 14.84 1.72308 17.24 4.52308 18.52C5.38461 18.84 5.16923 18.52 5.81538 16.6C5.81538 16.44 5.81538 16.28 5.6 16.12C1.72308 12.6 4.95385 5.72 14 5.72C27.1385 5.72 24.5538 19.16 16.3692 19.16C14.6462 19.32 13.1385 18.36 13.1385 17.08V16.44C14 14.68 14.6462 13.08 14.8615 11.32C14.8615 7.96 8.18462 8.44 8.18462 12.92C8.18462 13.72 8.4 14.52 8.83077 15.16C8.83077 15.16 6.67692 21.72 6.24615 22.84C5.81538 24.76 6.03077 26.68 6.46154 28.44C6.24615 28.6 6.46154 28.6 6.46154 28.6H6.67692C8.18462 27 9.47692 25.4 10.3385 23.64C10.5538 22.84 11.6308 19.96 11.6308 19.96C12.7077 21.08 14.6462 21.72 16.5846 21.72C23.2615 21.72 28 17.4 28 12.12C28 6.84 21.9692 3 14.4308 3Z" fill="black"/>
</svg>
