<svg width="32" height="32" viewBox="0 0 32 32" fill="none" xmlns="http://www.w3.org/2000/svg">
<path d="M10.0655 29.9996C12.5224 30.0162 14.9579 29.5074 17.2308 28.5027C19.5037 27.4979 21.5687 26.0172 23.3061 24.1464C25.0434 22.2757 26.4185 20.0521 27.3516 17.6046C28.2847 15.1572 28.7573 12.5346 28.7418 9.88894V8.96486C30.0154 7.96009 31.1178 6.72539 32 5.31549C30.8008 5.88028 29.5318 6.25485 28.2327 6.42753C29.6101 5.54382 30.6435 4.15281 31.1418 2.5119C29.8582 3.34114 28.4506 3.92409 26.9818 4.23478C25.9926 3.09982 24.6836 2.34753 23.2574 2.09432C21.8312 1.8411 20.3672 2.10107 19.092 2.83401C17.8168 3.56694 16.8014 4.73198 16.2031 6.14886C15.6047 7.56573 15.4566 9.15547 15.7818 10.6721C13.1724 10.5342 10.6192 9.80597 8.28852 8.53493C5.95782 7.26389 3.90187 5.47851 2.25455 3.29503C1.42389 4.84746 1.17211 6.68177 1.5502 8.42657C1.92828 10.1714 2.90797 11.6963 4.29091 12.6925C3.27071 12.6502 2.27411 12.3497 1.38182 11.8154V11.8937C1.37275 13.5161 1.88032 15.0928 2.81993 16.3611C3.75954 17.6294 5.07443 18.5126 6.54545 18.8636C5.59656 19.1384 4.60261 19.1812 3.63636 18.9889C4.06223 20.3725 4.87517 21.5803 5.9637 22.4468C7.05223 23.3133 8.36304 23.7959 9.71636 23.8286C7.40249 25.8342 4.52668 26.9382 1.55636 26.9611C1.03557 26.9448 0.515996 26.8978 0 26.8201C3.00648 28.8827 6.50066 29.9701 10.0655 29.9526" fill="black"/>
</svg>
